<svg xmlns="http://www.w3.org/2000/svg" xmlns:xlink="http://www.w3.org/1999/xlink" version="1.1" x="0px" y="0px" viewBox="0 0 65 81.25" enable-background="new 0 0 65 65" xml:space="preserve"><g><path d="M62.3,13.9H36.8V2.2c0-1.3-1.1-2.4-2.4-2.4H2.7c-1.3,0-2.4,1.1-2.4,2.4v39.3c0,1.3,1.1,2.4,2.4,2.4h9.5v18.9   c0,1.3,1.1,2.4,2.4,2.4h31.7c1.3,0,2.4-1.1,2.4-2.4V58h13.6c1.3,0,2.4-1.1,2.4-2.4V16.3C64.7,15,63.6,13.9,62.3,13.9z M2.7,42.4   c-0.5,0-0.9-0.4-0.9-0.9V2.2c0-0.5,0.4-0.9,0.9-0.9h31.7c0.5,0,0.9,0.4,0.9,0.9v11.7h-4.7c-1.3,0-2.4,1.1-2.4,2.4v4.8H14.6   c-1.3,0-2.4,1.1-2.4,2.4v18.9H2.7z M47.2,62.8c0,0.5-0.4,0.9-0.9,0.9H14.6c-0.5,0-0.9-0.4-0.9-0.9V23.5c0-0.5,0.4-0.9,0.9-0.9h13.6   v5.7H16.9v1.5h11.3v5.4H16.9v1.5h11.3v5.4H16.9v1.5h11.3v5.4H16.9v1.5h11.3v5.1c0,1.3,1.1,2.4,2.4,2.4h16.6V62.8z M63.2,55.6   c0,0.5-0.4,0.9-0.9,0.9H30.6c-0.5,0-0.9-0.4-0.9-0.9V16.3c0-0.5,0.4-0.9,0.9-0.9h31.7c0.5,0,0.9,0.4,0.9,0.9V55.6z"/><rect x="33.1" y="19.9" width="26.7" height="1.5"/><rect x="33.1" y="26.3" width="26.7" height="1.5"/><rect x="33.1" y="32.6" width="26.7" height="1.5"/><rect x="33.1" y="39" width="26.7" height="1.5"/><rect x="36.1" y="45.3" width="20.8" height="1.5"/><rect x="5.2" y="5.8" width="26.7" height="1.5"/><rect x="5.2" y="11.4" width="21.5" height="1.5"/><rect x="5.2" y="16.9" width="17.8" height="1.5"/></g><text x="0" y="80" fill="#000000" font-size="5px" font-weight="bold" font-family="'Helvetica Neue', Helvetica, Arial-Unicode, Arial, Sans-serif">Created by Creative Stall</text><text x="0" y="85" fill="#000000" font-size="5px" font-weight="bold" font-family="'Helvetica Neue', Helvetica, Arial-Unicode, Arial, Sans-serif">from the Noun Project</text></svg>